<?xml version="1.0" encoding="utf-8"?>
<!-- Generator: Adobe Illustrator 23.1.0, SVG Export Plug-In . SVG Version: 6.00 Build 0)  -->
<svg version="1.1" id="Слой_1" xmlns="http://www.w3.org/2000/svg" xmlns:xlink="http://www.w3.org/1999/xlink" x="0px" y="0px"
	 viewBox="0 0 53.1 59.8" style="enable-background:new 0 0 53.1 59.8;" xml:space="preserve">
<style type="text/css">
	.st0{fill:#FDFCFC;}
	.st1{fill:#691C1C;}
	.st2{fill:#030000;}
</style>
<g>
	<path class="st0" d="M51.5,29.1c0,8,0,16,0,24c0,1-0.2,1.2-1.2,1.2c-16,0-32,0-48,0c-1,0-1.2-0.2-1.2-1.2c0-16,0-32,0-48
		c0-1,0.2-1.2,1.2-1.2c16,0,32,0,48,0c1,0,1.2,0.2,1.2,1.2C51.5,13.1,51.5,21.1,51.5,29.1z M7.9,25c0,6.1,0.1,12.2,0,18.3
		c0,1.9,0.7,2,2.1,1.6c4-1.1,7.5-5.8,7.5-10.4c0-6.8,0-13.6,0-20.5c0-0.7-0.5-1.8,0.5-2c1-0.2,2.1-0.2,3,0.5c1.3,1,1.3,8.6-0.2,9.2
		c-1.5,0.6-1.1,1.4-0.7,2.4c0.4,1.2,1,2.4,1.9,3.4c1.8,2,4.1,2,5.9,0.1c1.6-1.7,2.5-3.8,2.6-6.2c0.1-2.9,0-5.7-0.1-8.6
		c-0.2-4.4-2.3-6.5-6.7-7.3c-4.6-0.9-9.3-0.4-14-0.6C8.3,4.8,7.9,5.2,7.9,6.6C8,12.8,7.9,18.9,7.9,25z M35.8,35.4
		c-1.2-1.9-2.2-3.3-4.2-3.7c-2.9-0.6-5.7-0.4-8.5,0.5c-3,0.9-3.7,3.7-1.6,6.1c0.7,0.8,1.6,1.3,2.6,1.7c2.2,0.7,4.4,1.5,6.7,2.2
		c1.9,0.5,2.9,1.9,3.6,3.5c0.3,0.7,0.7,1.6-0.3,2c-0.9,0.4-1.8,0.3-2.4-0.7c-1.9-3.4-5.2-3.5-8.4-3.6c-0.5,0-1.1,0-0.9,0.8
		c0.5,2.4,0.9,4.8,2.7,6.5c4.4,4,13.6,3.8,17.8,0.2c1.3-1.1,1.9-2.4,1-4.1c-2.1-4.3-4.8-7.8-9.8-8.9c-1.6-0.4-3.3-0.8-4.9-1.2
		c-0.8-0.2-1.7-0.4-2.2-1.2c-0.3-0.5-0.7-1-0.1-1.6c0.4-0.4,1-0.3,1.4,0C30.4,35.7,32.9,35.4,35.8,35.4z"/>
	<path class="st1" d="M7.9,25c0-6.1,0.1-12.2,0-18.3c0-1.5,0.4-1.9,1.9-1.8c4.7,0.2,9.3-0.3,14,0.6c4.3,0.8,6.4,2.9,6.7,7.3
		c0.1,2.9,0.2,5.7,0.1,8.6c-0.1,2.3-1,4.4-2.6,6.2c-1.8,2-4.1,1.9-5.9-0.1c-0.9-1-1.5-2.1-1.9-3.4c-0.4-1-0.8-1.7,0.7-2.4
		c1.4-0.6,1.5-8.2,0.2-9.2c-0.9-0.7-2-0.7-3-0.5c-1,0.2-0.5,1.3-0.5,2c0,6.8,0,13.6,0,20.5c0,4.6-3.4,9.3-7.5,10.4
		c-1.5,0.4-2.2,0.3-2.1-1.6C8,37.2,7.9,31.1,7.9,25z M9,24.8c0,5.7,0,11.3,0,17c0,2.2,0.4,2.5,2.3,1.3c3.2-2,5-4.9,5.1-8.7
		c0.1-7.1,0-14.2,0-21.3c0-0.7-0.2-1.5,0.5-2c1.1-0.9,5-0.1,5.4,1.2c1.1,3.1,1.2,6.4-0.1,9.5c-0.4,1-1.4,1.7-0.6,2.9
		c0.6,1,1.2,2,2.2,2.6c1,0.6,1.9,0.6,2.9-0.3c1.6-1.5,2.6-3.3,2.6-5.5c0.1-3,0.1-6,0-9c-0.1-3.6-2-5.5-5.6-6.1
		c-4.3-0.7-8.6-0.7-13-0.7c-1.4,0-1.8,0.5-1.7,1.8C9,13.4,9,19.1,9,24.8z"/>
	<path class="st1" d="M35.8,35.4c-2.9,0-5.4,0.3-7.6-1.5c-0.5-0.4-1-0.4-1.4,0c-0.6,0.5-0.2,1.1,0.1,1.6c0.5,0.8,1.4,1,2.2,1.2
		c1.6,0.4,3.3,0.9,4.9,1.2c5,1.1,7.8,4.6,9.8,8.9c0.8,1.7,0.3,3-1,4.1c-4.2,3.5-13.4,3.7-17.8-0.2c-1.9-1.7-2.3-4.2-2.7-6.5
		c-0.2-0.8,0.4-0.9,0.9-0.8c3.3,0.1,6.6,0.2,8.4,3.6c0.5,1,1.5,1.1,2.4,0.7c1-0.4,0.6-1.3,0.3-2c-0.7-1.7-1.7-3-3.6-3.5
		c-2.2-0.6-4.4-1.4-6.7-2.2c-1-0.3-1.9-0.8-2.6-1.7c-2.1-2.4-1.4-5.2,1.6-6.1c2.8-0.8,5.6-1,8.5-0.5C33.5,32,34.6,33.4,35.8,35.4z
		 M33.7,52.4c2.8-0.2,5.6-0.3,8-2c1-0.7,1.8-1.7,1.1-3c-1.8-3.9-4.2-7.3-8.9-8.3c-1.9-0.4-3.8-0.9-5.6-1.4c-2.4-0.7-2.9-1.5-2.7-3.9
		c0.1-0.6-0.1-0.9-0.6-0.8c-1.3,0.3-2.9,0.4-3.4,1.9c-0.4,1.3,0.3,2.6,1.5,3.3c0.7,0.5,1.5,0.8,2.3,1c2.1,0.7,4.2,1.4,6.3,2.1
		c2.4,0.8,3.5,2.9,4.1,5.1c0.3,1.3-0.4,2.3-1.8,2.5c-1.5,0.3-2.6-0.1-3.4-1.5c-1.3-2.3-3.7-2.7-6.1-2.7c-0.5,0-0.9,0.1-0.8,0.8
		c0.5,2.4,1.4,4.7,3.9,5.7C29.4,51.8,31.5,52.5,33.7,52.4z M28.3,32.3c1.6,1.6,3,2.1,5.1,1.7C32,32.3,30.2,32.7,28.3,32.3z"/>
	<path class="st2" d="M9,24.8c0-5.7,0-11.4,0-17.2c0-1.3,0.3-1.8,1.7-1.8c4.3,0,8.7,0.1,13,0.7c3.6,0.5,5.5,2.5,5.6,6.1
		c0.1,3,0.1,6,0,9c-0.1,2.2-1,4-2.6,5.5c-0.9,0.8-1.8,0.8-2.9,0.3c-1.1-0.6-1.6-1.7-2.2-2.6c-0.8-1.2,0.2-1.9,0.6-2.9
		c1.3-3.1,1.2-6.3,0.1-9.5c-0.5-1.3-4.3-2.1-5.4-1.2c-0.7,0.5-0.5,1.3-0.5,2c0,7.1,0.1,14.2,0,21.3c0,3.8-1.8,6.7-5.1,8.7
		C9.4,44.3,9,44,9,41.8C9,36.1,9,30.5,9,24.8z"/>
	<path class="st2" d="M33.7,52.4c-2.2,0.1-4.3-0.5-6.2-1.4c-2.5-1.1-3.3-3.3-3.9-5.7c-0.2-0.7,0.3-0.8,0.8-0.8
		c2.4,0.1,4.7,0.4,6.1,2.7c0.8,1.4,2,1.8,3.4,1.5c1.4-0.2,2.2-1.2,1.8-2.5c-0.6-2.2-1.6-4.3-4.1-5.1c-2.1-0.7-4.2-1.4-6.3-2.1
		c-0.8-0.3-1.6-0.6-2.3-1c-1.2-0.8-1.9-2-1.5-3.3c0.4-1.5,2.1-1.6,3.4-1.9c0.6-0.1,0.7,0.2,0.6,0.8c-0.2,2.4,0.4,3.2,2.7,3.9
		c1.9,0.5,3.7,1,5.6,1.4c4.6,1,7,4.4,8.9,8.3c0.6,1.3-0.1,2.3-1.1,3C39.2,52.1,36.4,52.2,33.7,52.4z"/>
	<path class="st2" d="M28.3,32.3c1.9,0.4,3.8,0,5.1,1.7C31.3,34.4,29.9,34,28.3,32.3z"/>
</g>
<path class="st2" d="M27.9,32c-0.8-0.2-2.8,0.3-3.2,0.4c-0.2,0.1-2.1,0.9-2.2,1c-0.4,0.5,2.9,0.2,3,0.1c0.6-1.1,2.4-1.1,4.1-0.1
	c0.4,0.2,2-0.6,2-0.7C31.7,32.8,28.5,32.2,27.9,32z"/>
</svg>
