<svg id="Слой_1" data-name="Слой 1" xmlns="http://www.w3.org/2000/svg" viewBox="0 0 36.311 48.744">
  <defs>
    <style>
      .cls-1 {
        fill: #f43534;
      }

      .cls-2 {
        fill: #fff;
      }
    </style>
  </defs>
  <title>PS</title>
  <path class="cls-1" d="M13.063,24.219c0-6.107.05-12.215-.037-18.321-.021-1.489.41-1.879,1.86-1.818,4.664.2,9.346-.267,14,.6,4.32.806,6.421,2.94,6.65,7.3.15,2.852.188,5.717.108,8.572a9.339,9.339,0,0,1-2.573,6.161c-1.841,1.989-4.064,1.933-5.913-.06a9.658,9.658,0,0,1-1.926-3.353c-.356-.978-.8-1.727.735-2.366,1.448-.6,1.454-8.168.166-9.171a3.554,3.554,0,0,0-2.991-.472c-1,.222-.469,1.317-.474,1.993-.044,6.822-.009,13.644-.033,20.466-.016,4.588-3.447,9.279-7.474,10.376-1.462.4-2.175.294-2.138-1.592C13.139,36.435,13.063,30.326,13.063,24.219Zm1.042-.151q0,8.484,0,16.967c0,2.2.424,2.492,2.333,1.332a9.87,9.87,0,0,0,5.053-8.676c.087-7.084.02-14.171.032-21.257,0-.692-.206-1.473.464-2,1.1-.867,4.957-.128,5.428,1.187a12.748,12.748,0,0,1-.109,9.474c-.41.97-1.424,1.669-.649,2.881a7.005,7.005,0,0,0,2.248,2.638,2.22,2.22,0,0,0,2.855-.264A7.528,7.528,0,0,0,34.4,20.9c.1-2.987.068-5.981-.013-8.97-.1-3.577-2.008-5.523-5.588-6.07a87.419,87.419,0,0,0-12.985-.748c-1.4,0-1.752.474-1.738,1.8C14.14,12.627,14.106,18.348,14.105,24.068Z" transform="translate(-13.017 -4.074)"/>
  <path class="cls-1" d="M40.92,34.617c-2.882.011-5.411.328-7.559-1.463a1.036,1.036,0,0,0-1.426-.029c-.606.517-.227,1.052.076,1.555a3.153,3.153,0,0,0,2.159,1.188c1.627.442,3.262.865,4.91,1.215C44.1,38.149,46.844,41.672,48.928,46a3.105,3.105,0,0,1-1.017,4.126c-4.236,3.526-13.39,3.745-17.824-.24-1.895-1.7-2.284-4.154-2.747-6.524-.158-.807.365-.866.906-.846,3.276.121,6.566.2,8.431,3.636a1.7,1.7,0,0,0,2.37.684c1-.436.635-1.3.347-2.018a5.328,5.328,0,0,0-3.579-3.542c-2.246-.621-4.439-1.429-6.656-2.154a5.539,5.539,0,0,1-2.587-1.66c-2.06-2.432-1.361-5.2,1.639-6.107a17.293,17.293,0,0,1,8.482-.468C38.674,31.282,39.745,32.69,40.92,34.617ZM38.8,51.61c2.782-.168,5.587-.277,7.955-2.049.994-.744,1.753-1.681,1.14-2.995-1.837-3.938-4.206-7.323-8.85-8.314-1.9-.405-3.772-.914-5.635-1.45-2.352-.676-2.946-1.5-2.726-3.909.058-.64-.066-.938-.624-.816-1.313.285-2.933.388-3.37,1.9a3.03,3.03,0,0,0,1.482,3.344,10.2,10.2,0,0,0,2.292,1.042c2.079.725,4.177,1.392,6.266,2.087,2.449.814,3.466,2.862,4.066,5.084a1.95,1.95,0,0,1-1.808,2.495,3,3,0,0,1-3.449-1.548c-1.339-2.341-3.663-2.675-6.065-2.747-.5-.014-.913.091-.759.779.54,2.418,1.395,4.669,3.858,5.729A13.944,13.944,0,0,0,38.8,51.61Zm-5.38-20.038a5.03,5.03,0,0,0,5.069,1.713C37.191,31.55,35.308,31.934,33.423,31.572Z" transform="translate(-13.017 -4.074)"/>
  <path class="cls-2" d="M14.106,24.068c0-5.72.034-11.441-.026-17.161-.014-1.326.337-1.8,1.738-1.8A87.419,87.419,0,0,1,28.8,5.855c3.58.547,5.491,2.493,5.588,6.07.081,2.989.11,5.983.013,8.97a7.528,7.528,0,0,1-2.641,5.454,2.22,2.22,0,0,1-2.855.264,7.005,7.005,0,0,1-2.248-2.638c-.775-1.212.239-1.911.649-2.881a12.748,12.748,0,0,0,.109-9.474c-.471-1.315-4.327-2.054-5.428-1.187-.67.528-.463,1.309-.464,2-.012,7.086.055,14.173-.032,21.257a9.87,9.87,0,0,1-5.053,8.676c-1.909,1.16-2.33.866-2.333-1.332Q14.1,32.553,14.106,24.068Z" transform="translate(-13.017 -4.074)"/>
  <path class="cls-2" d="M38.8,51.61a13.944,13.944,0,0,1-6.227-1.373c-2.463-1.06-3.318-3.311-3.858-5.729-.154-.688.261-.793.759-.779,2.4.072,4.726.406,6.065,2.747a3,3,0,0,0,3.449,1.548A1.95,1.95,0,0,0,40.8,45.529c-.6-2.222-1.617-4.27-4.066-5.084-2.089-.7-4.187-1.362-6.266-2.087a10.2,10.2,0,0,1-2.292-1.042,3.03,3.03,0,0,1-1.482-3.344c.437-1.507,2.057-1.61,3.37-1.9.558-.122.682.176.624.816-.22,2.409.374,3.233,2.726,3.909,1.863.536,3.74,1.045,5.635,1.45,4.644.991,7.013,4.376,8.85,8.314.613,1.314-.146,2.251-1.14,2.995C44.39,51.333,41.585,51.442,38.8,51.61Z" transform="translate(-13.017 -4.074)"/>
  <path class="cls-2" d="M33.423,31.572c1.885.362,3.768-.022,5.069,1.713A5.03,5.03,0,0,1,33.423,31.572Z" transform="translate(-13.017 -4.074)"/>
</svg>
