<svg id="Слой_1" data-name="Слой 1" xmlns="http://www.w3.org/2000/svg" viewBox="0 0 20 19.98"><defs><style>.cls-1{fill:#110e0d;fill-rule:evenodd;}</style></defs><title>icons</title><path class="cls-1" d="M10,0A10,10,0,1,0,20,10,10,10,0,0,0,10,0ZM9.61,14.3H8V11a5.08,5.08,0,0,0-.09-1.24.84.84,0,0,0-.32-.42A1,1,0,0,0,7,9.2a1.28,1.28,0,0,0-.71.2,1.09,1.09,0,0,0-.46.6,3.55,3.55,0,0,0-.15,1.18v3.11H4.08V5.49H5.69v3.4A2.36,2.36,0,0,1,7.55,8a2.33,2.33,0,0,1,1,.21,1.6,1.6,0,0,1,.67.54,2.07,2.07,0,0,1,.31.73,6.19,6.19,0,0,1,.08,1.23Zm6.34,0H14.34V11a5.08,5.08,0,0,0-.09-1.24.84.84,0,0,0-.32-.42,1,1,0,0,0-.58-.16,1.28,1.28,0,0,0-.71.2,1.14,1.14,0,0,0-.46.6A3.55,3.55,0,0,0,12,11.18V14.3H10.42V5.49H12v3.4A2.36,2.36,0,0,1,13.89,8a2.33,2.33,0,0,1,1,.21,1.6,1.6,0,0,1,.67.54,2.07,2.07,0,0,1,.31.73A6.19,6.19,0,0,1,16,10.67V14.3Z"/></svg>