<?xml version="1.0" encoding="utf-8"?>
<!-- Generator: Adobe Illustrator 23.1.0, SVG Export Plug-In . SVG Version: 6.00 Build 0)  -->
<svg version="1.1" id="Слой_1" xmlns="http://www.w3.org/2000/svg" xmlns:xlink="http://www.w3.org/1999/xlink" x="0px" y="0px"
	 viewBox="0 0 76 127.5" style="enable-background:new 0 0 76 127.5;" xml:space="preserve">
<style type="text/css">
	.st0{fill:#FEF8F3;}
</style>
<g>
	<path class="st0" d="M13.3,110.9c0,0,0.5,4.2,3.8,4.2c12.1-0.2,24.3-0.2,36.4,0c3.3,0.1,3.9-1.2,3.8-4.1c-0.1-2.9,0-5-4.1-4.9
		c-9,0.3-18,0-26.9,0.1C23,106.3,22,102,22,102s0-2.2,0-5.5c0-7.7,2.4-11.3,7.2-15.2c1.2-0.9,2.9-1.6,4.4-1.7
		c9.6-0.2,19.3,0.1,28.9-0.2c3.6-0.1,3.7,1.7,3.6,4.3c-0.1,2.5,0.6,5-3.5,4.9c-8.5-0.2-17-0.2-25.4,0c-1.8,0.1-4.2,1.2-5.3,2.7
		c-2.5,3.2-0.9,5.9,3.1,5.9c9.1,0,18.3,0.1,27.4-0.1c2.7,0,3.8,0.7,3.7,3.6c-0.2,6.5-0.2,13,0,19.5c0.1,2.7-0.9,3.3-3.4,3.3
		c-18.1-0.1-36.3-0.1-54.4,0c-2.8,0-3.8-0.9-3.8-3.7c0.1-11.8,0.7-92,0.7-112.1c0-2.3,0.5-3.2,3-3.2c11.5,0.1,23-0.8,34.4,0.2
		c11.8,1.1,23,8.4,28.5,22.8c6.1,16-2.2,35.2-20.1,42.2c-7.2,2.8-15.9,1.9-24,2.4c-0.6,0-2-1.6-2-2.5c-0.1-14.3-0.1-28.6,0.1-42.9
		c0-0.8,1.4-2.2,2.2-2.2c5-0.2,10-0.2,15,0c4,0.2,9.9,5.9,10.6,10.1c1,5.4-1.9,13.8-5.6,15.5c-1.5,0.7-3.3,1-3.2-1.9
		c0.2-3.1,0.1-6.3,0-9.5c-0.2-3.4-2-5.4-5.5-5.9c-3.2-0.4-5.2,0.1-5,4.2c0.3,7,0.3,14,0,21c-0.2,3.9,2,5.1,4.8,5.1
		c14.4-0.2,22.5-9.1,24.4-19.8c2.5-14.7-4.1-23.7-16.3-28.3c-5.3-2-11.7-1.2-17.7-1.5c-3.3-0.2-6.7,0.1-10-0.2
		c-3.4-0.2-4.3,1.2-4.2,4.4C14.8,27.2,13.3,110.9,13.3,110.9z"/>
</g>
</svg>
